<?xml version="1.0" encoding="UTF-8"?>
<svg width="1014px" height="506px" viewBox="0 0 1014 506" version="1.1" xmlns="http://www.w3.org/2000/svg" xmlns:xlink="http://www.w3.org/1999/xlink">
    <!-- Generator: Sketch 57 (83077) - https://sketch.com -->
    <title>开源 logo</title>
    <desc>Created with Sketch.</desc>
    <defs>
        <path d="M150.531907,2.28539421 L283.159542,76.1273434 C286.963716,78.2453608 289.322169,82.2578105 289.322169,86.6118591 L289.322169,213.217888 C289.322169,217.571936 286.963716,221.584386 283.159542,223.702403 L150.531907,297.544353 C146.902623,299.564998 142.486445,299.564998 138.85716,297.544353 L6.22952528,223.702403 C2.42535114,221.584386 0.0668990063,217.571936 0.0668990063,213.217888 L0.0668990063,86.6118591 C0.0668990063,82.2578105 2.42535114,78.2453608 6.22952528,76.1273434 L138.85716,2.28539421 C142.486445,0.264748386 146.902623,0.264748386 150.531907,2.28539421 Z M141.62771,66.7242502 L62.7828394,113.146313 C61.3550782,113.986946 60.879117,115.825843 61.7197502,117.253604 C61.9864747,117.706618 62.3675578,118.081591 62.8248241,118.340958 L141.004879,162.685685 C143.478912,164.088988 146.511999,164.073158 148.97125,162.644107 L225.278607,118.302518 C226.711158,117.470074 227.197641,115.633933 226.365197,114.201382 C226.115927,113.772414 225.764161,113.411964 225.341398,113.15231 L149.873485,66.8011718 C147.350848,65.2518101 144.178812,65.2222194 141.62771,66.7242502 Z" id="path-1"></path>
    </defs>
    <g id="开源-logo" stroke="none" stroke-width="1" fill="none" fill-rule="evenodd">
        <rect fill="#FFFFFF" x="0" y="0" width="1014" height="506"></rect>
        <g id="路径-21备份" transform="translate(52.000000, 82.000000)">
            <mask id="mask-2" fill="white">
                <use xlink:href="#path-1"></use>
            </mask>
            <use id="形状结合" fill="#F26C66" xlink:href="#path-1"></use>
            <path d="M289.322169,135.52394 L289.322169,220.758167 L144.101235,301.942544 L144.100588,301.24994 L35.5835882,239.686436 L35.5835882,155.486213 L144.694534,216.351958 L144.693588,216.37594 L289.322169,135.52394 Z" id="形状结合备份" fill="#43C2EF" mask="url(#mask-2)"></path>
            <g id="编组" mask="url(#mask-2)">
                <g transform="translate(35.583588, 125.295820)">
                    <path d="M2.55440114e-12,114.879538 L4.85291807e-11,59.6182217 L109.110946,120.483967 L253.73858,39.6559486 L253.73858,94.917265 L109.110946,175.745284 L2.55440114e-12,114.879538 Z" id="形状结合备份-8" fill="#F16963"></path>
                    <path d="M2.57571742e-12,108.233236 L4.86446439e-11,52.9719194 L109.110946,113.837665 L253.73858,33.0096463 L253.73858,88.2709628 L109.110946,169.098981 L2.57571742e-12,108.233236 Z" id="形状结合备份-3" fill="#F99F34"></path>
                    <path d="M2.67874611e-12,100.516194 L4.88409313e-11,45.2548776 L109.110946,106.120623 L253.73858,25.2926045 L253.73858,80.553921 L109.110946,161.38194 L2.67874611e-12,100.516194 Z" id="形状结合备份-4" fill="#F4E42A"></path>
                    <path d="M2.7000624e-12,94.7637825 L4.8535842e-11,39.502466 L109.110946,100.368211 L253.73858,19.5401929 L253.73858,74.8015094 L109.110946,155.629528 L2.7000624e-12,94.7637825 Z" id="形状结合备份-2" fill="#B2D555"></path>
                    <path d="M2.92743607e-12,84.9760012 L4.87632157e-11,29.7146847 L109.110946,90.5804301 L253.73858,9.75241158 L253.73858,65.0137281 L109.110946,145.841747 L2.92743607e-12,84.9760012 Z" id="形状结合备份-5" fill="#6BC1A2"></path>
                    <path d="M2.47268872e-12,75.2235896 L4.8535842e-11,19.9622731 L109.110946,80.8280186 L253.73858,4.9222848e-12 L253.73858,55.2613165 L109.110946,136.089335 L2.47268872e-12,75.2235896 Z" id="形状结合备份-6" fill="#D9F5FF"></path>
                </g>
            </g>
            <path d="M35.5835882,154.707166 L35.5835882,100.771557 L144.694534,161.637302 L289.322169,79.5584559 L289.322169,134.744892 L144.694534,215.572911 L35.5835882,154.707166 Z" id="形状结合备份-7" fill="#82DEFF" mask="url(#mask-2)"></path>
            <path d="M144.970568,-3.96751071 L204.110453,30.3674948 L203.421,30.7744893 L288.903686,80.0491572 L227.370516,115.779958 L145.732,64.8644893 L61.154,114.845489 L61.1541927,281.570111 L-4.54747351e-13,246.645448 L-4.54747351e-13,79.5584559 L6.532,83.3194893 L0.0668990062,79.5584559 L88.01,28.8654893 L86.9643232,28.2127246 L144.000016,-3.47680947 L144.06,-3.44251071 L144.970568,-3.96751071 Z" id="形状结合" fill="#43C2EF" mask="url(#mask-2)"></path>
        </g>
        <path d="M386,290.652 L386,182.388 L422.504,182.388 C454.172,182.388 462.908,192.06 462.908,211.56 C462.908,222.792 459.008,230.436 447.152,233.712 L447.152,234.336 C459.788,237.612 466.184,245.88 466.184,259.452 C466.184,279.108 457.448,290.652 425.78,290.652 L386,290.652 Z M409.712,227.004 L417.668,227.004 C433.112,227.004 439.508,224.664 439.508,214.056 C439.508,202.824 433.268,201.264 417.668,201.264 L409.712,201.264 L409.712,227.004 Z M409.712,271.62 L420.632,271.62 C437.324,271.62 442.16,268.968 442.16,257.892 C442.16,247.752 437.48,244.164 420.632,244.164 L409.712,244.164 L409.712,271.62 Z M497.384,194.712 C487.244,194.712 484.748,193.308 484.748,182.7 C484.748,172.092 487.244,171 497.384,171 C507.68,171 510.02,172.092 510.02,182.7 C510.02,193.308 507.68,194.712 497.384,194.712 Z M485.996,290.652 L485.996,206.412 L508.616,206.412 L508.616,290.652 L485.996,290.652 Z M571.016,187.848 C559.784,187.848 557.444,191.436 557.444,206.412 L573.98,206.412 L573.98,224.04 L557.444,224.04 L557.444,290.652 L534.824,290.652 L534.824,224.04 L521.876,224.04 L521.876,206.412 L534.824,206.412 L534.824,205.632 C534.824,176.46 547.616,171.468 568.052,171.468 C571.328,171.468 574.604,171.78 577.724,172.248 L577.724,188.472 C575.696,188.004 573.356,187.848 571.016,187.848 Z M634.196,204.852 L635.912,204.852 L635.288,224.976 L633.104,224.976 C622.652,224.976 612.2,229.032 609.704,242.76 L609.704,290.652 L587.084,290.652 L587.084,206.412 L609.704,206.412 L609.704,221.544 C614.696,207.66 624.212,204.852 634.196,204.852 Z M685.364,292.212 C659.156,292.212 644.024,282.696 644.024,248.532 C644.024,214.368 659.156,204.852 685.364,204.852 C711.416,204.852 726.548,214.368 726.548,248.532 C726.548,282.696 711.416,292.212 685.364,292.212 Z M685.364,275.052 C699.248,275.052 703.46,269.124 703.46,248.532 C703.46,228.096 698.936,221.7 685.364,221.7 C671.48,221.7 667.268,228.096 667.268,248.532 C667.268,269.124 671.792,275.052 685.364,275.052 Z M768.044,291.588 C758.216,291.588 748.856,290.652 741.368,288.936 L741.368,270.06 C749.48,272.556 759.152,273.96 766.796,273.96 C776.624,273.96 780.836,272.244 780.836,265.536 C780.836,258.828 778.184,257.112 764.612,253.836 C746.516,249.624 742.304,244.164 742.304,229.968 C742.304,214.212 751.508,204.852 776,204.852 C785.36,204.852 794.564,205.944 799.088,207.66 L798.152,224.976 C793.628,223.728 784.268,221.856 776.78,221.856 C766.328,221.856 763.52,223.884 763.52,229.656 C763.52,234.96 765.86,235.896 779.12,239.172 C797.528,243.852 802.364,249.468 802.364,264.912 C802.364,284.724 789.728,291.588 768.044,291.588 Z M863.204,224.196 L845.732,224.196 L845.732,261.792 C845.732,271.62 847.448,273.96 855.404,273.96 C858.056,273.96 860.396,273.804 862.112,273.336 L862.112,290.808 C858.836,291.276 854.936,291.588 851.192,291.588 C830.444,291.588 823.112,285.816 823.112,263.664 L823.112,224.196 L812.036,224.196 L812.036,206.412 L823.112,206.412 L823.112,186.444 L845.732,186.444 L845.732,206.412 L863.204,206.412 L863.204,224.196 Z" id="Bifrost" fill="#40454A" fill-rule="nonzero"></path>
    </g>
</svg>